<?xml version="1.0" encoding="UTF-8"?>
<svg width="48" height="48" viewBox="0 0 48 48" fill="none" xmlns="http://www.w3.org/2000/svg">
  <rect width="48" height="48" rx="8" fill="#F8F9FA"/>
  <path d="M30 16H18C14.7 16 12 18.7 12 22V26C12 29.3 14.7 32 18 32H30C33.3 32 36 29.3 36 26V22C36 18.7 33.3 16 30 16Z" fill="white"/>
  <path d="M24 28C26.2091 28 28 26.2091 28 24C28 21.7909 26.2091 20 24 20C21.7909 20 20 21.7909 20 24C20 26.2091 21.7909 28 24 28Z" fill="#F79E1B"/>
  <path d="M20 24C20 21.8 21.8 20 24 20C26.2 20 28 21.8 28 24" fill="#FF5F00"/>
  <path d="M20 24C20 26.2 21.8 28 24 28C26.2 28 28 26.2 28 24" fill="#EB001B"/>
</svg>
