<?xml version="1.0" encoding="UTF-8"?>
<svg width="48" height="48" viewBox="0 0 48 48" fill="none" xmlns="http://www.w3.org/2000/svg">
  <rect width="48" height="48" rx="8" fill="#F8F9FA"/>
  <path d="M24 12C17.4 12 12 17.4 12 24C12 30.6 17.4 36 24 36C30.6 36 36 30.6 36 24C36 17.4 30.6 12 24 12Z" fill="#FF8C00"/>
  <path d="M26.5 19H21.5C20.7 19 20 19.7 20 20.5V27.5C20 28.3 20.7 29 21.5 29H26.5C27.3 29 28 28.3 28 27.5V20.5C28 19.7 27.3 19 26.5 19Z" fill="white"/>
  <path d="M24 31C24.8284 31 25.5 30.3284 25.5 29.5C25.5 28.6716 24.8284 28 24 28C23.1716 28 22.5 28.6716 22.5 29.5C22.5 30.3284 23.1716 31 24 31Z" fill="white"/>
</svg>
