<?xml version="1.0" encoding="UTF-8"?>
<svg width="48" height="48" viewBox="0 0 48 48" fill="none" xmlns="http://www.w3.org/2000/svg">
  <rect width="48" height="48" rx="8" fill="#F8F9FA"/>
  <path d="M20.5 28.9H17.5L19.5 19.1H22.5L20.5 28.9Z" fill="#1434CB"/>
  <path d="M30.5 19.3C29.9 19.1 29 18.9 27.9 18.9C25 18.9 23 20.4 23 22.5C23 24.1 24.5 24.9 25.6 25.5C26.7 26 27.1 26.4 27.1 26.9C27.1 27.7 26.1 28 25.2 28C24 28 23.3 27.9 22.3 27.5L21.9 27.3L21.5 29.9C22.2 30.2 23.5 30.5 24.8 30.5C27.9 30.5 29.9 29 29.9 26.8C29.9 25.5 29.1 24.5 27.4 23.7C26.4 23.2 25.7 22.9 25.7 22.3C25.7 21.8 26.3 21.3 27.5 21.3C28.5 21.3 29.2 21.5 29.8 21.7L30.1 21.8L30.5 19.3Z" fill="#1434CB"/>
  <path d="M35.5 19.1H33.2C32.5 19.1 32 19.3 31.7 20L27.5 28.9H30.6L31.2 27.3H34.7L35 28.9H37.8L35.5 19.1ZM31.9 25.1C31.9 25.1 32.9 22.6 33.1 22.1C33.1 22.1 33.3 21.6 33.4 21.3L33.6 22C33.6 22 34.2 24.6 34.3 25.1H31.9Z" fill="#1434CB"/>
  <path d="M16 19.1L13 26.1L12.7 24.9C12.2 23.4 10.5 21.8 8.5 21L11.5 28.9H14.6L19.6 19.1H16Z" fill="#1434CB"/>
</svg>
